<svg width="130" height="56" viewBox="0 0 130 56" fill="none" xmlns="http://www.w3.org/2000/svg">
<path d="M7.70287 16.7671H11.8189L19.4924 39.6823H15.3175L13.3771 33.9697H6.08585L4.17484 39.6823H0L7.70287 16.7671ZM12.6421 30.839L9.76089 21.3824L6.76206 30.839H12.6421Z" fill="white"/>
<path d="M23.9575 16.7671L29.132 25.2231L34.277 16.7671H38.6871L31.4546 28.3861L38.4519 39.6823H34.0418L29.132 31.549L24.1927 39.6823H19.7533L26.7506 28.3861L19.5181 16.7671H23.9575Z" fill="white"/>
<path d="M40.7887 39.6823V16.7671H44.8459V39.6823H40.7887Z" fill="#EC7979"/>
<path d="M64.8126 20.6724H58.1388V39.6823H54.1109V20.6724H47.4371V16.7671H64.8126V20.6724Z" fill="#EC7979"/>
</svg>
